REM DIRINDEX 1\2,1\3,1\4,1\6,1\5\7,1\5\8
REM DIRNAME folder01,folder02,folder03,folder04,folder05,folder06,folder07,folder08
TITLE ""
FILE "DB4500_5th_3B_15.mp3" MP3
  TRACK 01 AUDIO
    TITLE "0:"
    INDEX 01 00:00:00
  TRACK 02 AUDIO
    TITLE "2:cjc114_2140"
    INDEX 01 00:00:03
  TRACK 03 AUDIO
    TITLE "0:"
    INDEX 01 00:01:22
  TRACK 04 AUDIO
    TITLE "3:cjc114_2141"
    INDEX 01 00:01:52
  TRACK 05 AUDIO
    TITLE "0:"
    INDEX 01 00:02:53
  TRACK 06 AUDIO
    TITLE "4:cjc114_2142"
    INDEX 01 00:03:06
  TRACK 07 AUDIO
    TITLE "0:"
    INDEX 01 00:07:35
  TRACK 08 AUDIO
    TITLE "2:cjc114_2143"
    INDEX 01 00:08:15
  TRACK 09 AUDIO
    TITLE "0:"
    INDEX 01 00:09:14
  TRACK 10 AUDIO
    TITLE "3:cjc114_2144"
    INDEX 01 00:09:44
  TRACK 11 AUDIO
    TITLE "0:"
    INDEX 01 00:10:65
  TRACK 12 AUDIO
    TITLE "4:cjc114_2145"
    INDEX 01 00:11:19
  TRACK 13 AUDIO
    TITLE "0:"
    INDEX 01 00:15:46
  TRACK 14 AUDIO
    TITLE "2:cjc114_2146"
    INDEX 01 00:16:24
  TRACK 15 AUDIO
    TITLE "0:"
    INDEX 01 00:17:21
  TRACK 16 AUDIO
    TITLE "3:cjc114_2147"
    INDEX 01 00:17:49
  TRACK 17 AUDIO
    TITLE "0:"
    INDEX 01 00:18:74
  TRACK 18 AUDIO
    TITLE "4:cjc114_2148"
    INDEX 01 00:19:26
  TRACK 19 AUDIO
    TITLE "0:"
    INDEX 01 00:23:10
  TRACK 20 AUDIO
    TITLE "2:cjc114_2149"
    INDEX 01 00:23:63
  TRACK 21 AUDIO
    TITLE "0:"
    INDEX 01 00:25:09
  TRACK 22 AUDIO
    TITLE "3:cjc114_2150"
    INDEX 01 00:25:39
  TRACK 23 AUDIO
    TITLE "0:"
    INDEX 01 00:26:62
  TRACK 24 AUDIO
    TITLE "4:cjc114_2151"
    INDEX 01 00:27:14
  TRACK 25 AUDIO
    TITLE "0:"
    INDEX 01 00:30:34
  TRACK 26 AUDIO
    TITLE "2:cjc114_2152"
    INDEX 01 00:31:12
  TRACK 27 AUDIO
    TITLE "0:"
    INDEX 01 00:32:37
  TRACK 28 AUDIO
    TITLE "3:cjc114_2153"
    INDEX 01 00:32:62
  TRACK 29 AUDIO
    TITLE "0:"
    INDEX 01 00:34:08
  TRACK 30 AUDIO
    TITLE "4:cjc114_2154"
    INDEX 01 00:34:36
  TRACK 31 AUDIO
    TITLE "0:"
    INDEX 01 00:37:52
  TRACK 32 AUDIO
    TITLE "2:cjc114_2155"
    INDEX 01 00:38:30
  TRACK 33 AUDIO
    TITLE "0:"
    INDEX 01 00:39:41
  TRACK 34 AUDIO
    TITLE "3:cjc114_2156"
    INDEX 01 00:39:68
  TRACK 35 AUDIO
    TITLE "0:"
    INDEX 01 00:41:18
  TRACK 36 AUDIO
    TITLE "4:cjc114_2157"
    INDEX 01 00:41:47
  TRACK 37 AUDIO
    TITLE "0:"
    INDEX 01 00:44:46
  TRACK 38 AUDIO
    TITLE "2:cjc114_2158"
    INDEX 01 00:45:26
  TRACK 39 AUDIO
    TITLE "0:"
    INDEX 01 00:46:54
  TRACK 40 AUDIO
    TITLE "3:cjc114_2159"
    INDEX 01 00:47:09
  TRACK 41 AUDIO
    TITLE "0:"
    INDEX 01 00:48:61
  TRACK 42 AUDIO
    TITLE "4:cjc114_2160"
    INDEX 01 00:49:14
  TRACK 43 AUDIO
    TITLE "0:"
    INDEX 01 00:52:55
  TRACK 44 AUDIO
    TITLE "2:cjc114_2161"
    INDEX 01 00:53:33
  TRACK 45 AUDIO
    TITLE "0:"
    INDEX 01 00:54:40
  TRACK 46 AUDIO
    TITLE "3:cjc114_2162"
    INDEX 01 00:54:70
  TRACK 47 AUDIO
    TITLE "0:"
    INDEX 01 00:56:29
  TRACK 48 AUDIO
    TITLE "4:cjc114_2163"
    INDEX 01 00:56:57
  TRACK 49 AUDIO
    TITLE "0:"
    INDEX 01 01:01:01
  TRACK 50 AUDIO
    TITLE "2:cjc114_2164"
    INDEX 01 01:01:54
  TRACK 51 AUDIO
    TITLE "0:"
    INDEX 01 01:02:46
  TRACK 52 AUDIO
    TITLE "3:cjc114_2165"
    INDEX 01 01:02:73
  TRACK 53 AUDIO
    TITLE "0:"
    INDEX 01 01:04:50
  TRACK 54 AUDIO
    TITLE "4:cjc114_2166"
    INDEX 01 01:05:01
  TRACK 55 AUDIO
    TITLE "0:"
    INDEX 01 01:07:64
  TRACK 56 AUDIO
    TITLE "2:cjc114_2167"
    INDEX 01 01:08:42
  TRACK 57 AUDIO
    TITLE "0:"
    INDEX 01 01:09:56
  TRACK 58 AUDIO
    TITLE "3:cjc114_2168"
    INDEX 01 01:10:08
  TRACK 59 AUDIO
    TITLE "0:"
    INDEX 01 01:11:19
  TRACK 60 AUDIO
    TITLE "4:cjc114_2169"
    INDEX 01 01:11:47
  TRACK 61 AUDIO
    TITLE "0:"
    INDEX 01 01:15:03
  TRACK 62 AUDIO
    TITLE "2:cjc114_2170"
    INDEX 01 01:15:56
  TRACK 63 AUDIO
    TITLE "0:"
    INDEX 01 01:17:00
  TRACK 64 AUDIO
    TITLE "3:cjc114_2171"
    INDEX 01 01:17:30
  TRACK 65 AUDIO
    TITLE "0:"
    INDEX 01 01:19:03
  TRACK 66 AUDIO
    TITLE "4:cjc114_2172"
    INDEX 01 01:19:32
  TRACK 67 AUDIO
    TITLE "0:"
    INDEX 01 01:22:48
  TRACK 68 AUDIO
    TITLE "2:cjc114_2173"
    INDEX 01 01:23:26
  TRACK 69 AUDIO
    TITLE "0:"
    INDEX 01 01:24:32
  TRACK 70 AUDIO
    TITLE "3:cjc114_2174"
    INDEX 01 01:24:59
  TRACK 71 AUDIO
    TITLE "0:"
    INDEX 01 01:26:21
  TRACK 72 AUDIO
    TITLE "4:cjc114_2175"
    INDEX 01 01:26:48
  TRACK 73 AUDIO
    TITLE "0:"
    INDEX 01 01:29:50
  TRACK 74 AUDIO
    TITLE "2:cjc114_2176"
    INDEX 01 01:30:30
  TRACK 75 AUDIO
    TITLE "0:"
    INDEX 01 01:31:30
  TRACK 76 AUDIO
    TITLE "3:cjc114_2177"
    INDEX 01 01:31:57
  TRACK 77 AUDIO
    TITLE "0:"
    INDEX 01 01:33:11
  TRACK 78 AUDIO
    TITLE "4:cjc114_2178"
    INDEX 01 01:33:38
  TRACK 79 AUDIO
    TITLE "0:"
    INDEX 01 01:36:13
  TRACK 80 AUDIO
    TITLE "2:cjc114_2179"
    INDEX 01 01:36:66
  TRACK 81 AUDIO
    TITLE "0:"
    INDEX 01 01:37:69
  TRACK 82 AUDIO
    TITLE "3:cjc114_2180"
    INDEX 01 01:38:24
  TRACK 83 AUDIO
    TITLE "0:"
    INDEX 01 01:40:03
  TRACK 84 AUDIO
    TITLE "4:cjc114_2181"
    INDEX 01 01:40:29
  TRACK 85 AUDIO
    TITLE "0:"
    INDEX 01 01:44:13
